<svg width="668" height="668" viewBox="0 0 668 668" fill="none" xmlns="http://www.w3.org/2000/svg">
<rect width="668" height="668" fill="black"/>
<g clip-path="url(#clip0_509_7)">
<path fill-rule="evenodd" clip-rule="evenodd" d="M390.718 154.991C391.683 152.098 394.391 150.146 397.441 150.146H489.559C492.609 150.146 495.317 152.098 496.282 154.991L501.753 171.402H503.731C507.645 171.402 510.817 174.575 510.817 178.488C510.817 182.401 507.645 185.573 503.731 185.573H496.645H495.972L485.981 285.474C485.619 289.096 482.571 291.854 478.93 291.854H408.07C404.429 291.854 401.381 289.096 401.019 285.474L391.028 185.573H390.355H383.269C379.355 185.573 376.183 182.401 376.183 178.488C376.183 174.575 379.355 171.402 383.269 171.402H385.247L390.718 154.991ZM405.271 185.573L414.483 277.683H472.517L481.729 185.573H405.271ZM486.814 171.402H400.186L402.548 164.317H484.452L486.814 171.402Z" fill="white"/>
</g>
<path d="M181.216 293.2C179.216 293.2 177.616 292.867 176.416 292.2C175.349 291.667 174.549 290.933 174.016 290C173.482 288.933 173.082 287.933 172.816 287L132.016 166.4C130.949 163.2 130.749 160.8 131.416 159.2C132.216 157.467 134.282 156.067 137.616 155C139.749 154.333 141.482 154.067 142.816 154.2C144.282 154.2 145.482 154.733 146.416 155.8C147.482 156.733 148.349 158.267 149.016 160.4L182.016 261L212.216 161.2C212.616 160 213.082 158.867 213.616 157.8C214.282 156.733 215.216 155.933 216.416 155.4C217.616 154.733 219.216 154.4 221.216 154.4C223.482 154.4 225.216 154.733 226.416 155.4C227.616 156.067 228.482 156.867 229.016 157.8C229.682 158.6 230.082 159.467 230.216 160.4L261.016 261.6L293.816 160.8C294.616 158.533 295.482 156.867 296.416 155.8C297.349 154.6 298.549 153.933 300.016 153.8C301.616 153.667 303.549 154 305.816 154.8C308.082 155.467 309.682 156.267 310.616 157.2C311.549 158.133 312.016 159.333 312.016 160.8C312.016 162.267 311.682 164.133 311.016 166.4L270.216 287.2C269.949 288.133 269.482 289.067 268.816 290C268.282 290.933 267.416 291.667 266.216 292.2C265.149 292.867 263.616 293.2 261.616 293.2C259.749 293.2 258.216 292.867 257.016 292.2C255.816 291.533 254.882 290.667 254.216 289.6C253.682 288.4 253.216 287.333 252.816 286.4L221.416 185.4L190.016 286.4C189.749 287.333 189.282 288.4 188.616 289.6C187.949 290.667 187.016 291.533 185.816 292.2C184.749 292.867 183.216 293.2 181.216 293.2Z" fill="white"/>
<path d="M273.654 400.4C275.387 400.4 276.787 400.6 277.854 401C279.054 401.4 279.987 402.2 280.654 403.4C281.321 404.467 281.654 406.267 281.654 408.8C281.654 411.2 281.254 413 280.454 414.2C279.787 415.4 278.854 416.2 277.654 416.6C276.454 416.867 274.987 417 273.254 417H231.854V531.2C231.854 532.933 231.587 534.467 231.054 535.8C230.654 537.133 229.787 538.133 228.454 538.8C227.254 539.6 225.387 540 222.854 540C220.187 540 218.187 539.6 216.854 538.8C215.654 538.133 214.854 537.133 214.454 535.8C214.187 534.333 214.054 532.733 214.054 531V417H172.054C170.321 417 168.854 416.867 167.654 416.6C166.454 416.2 165.521 415.4 164.854 414.2C164.187 413 163.854 411.2 163.854 408.8C163.854 406.267 164.121 404.467 164.654 403.4C165.321 402.2 166.254 401.4 167.454 401C168.787 400.6 170.254 400.4 171.854 400.4H273.654ZM413.229 540C410.696 540 408.762 539.6 407.429 538.8C406.229 538.133 405.429 537.133 405.029 535.8C404.629 534.333 404.429 532.667 404.429 530.8V409.4C404.429 407.667 404.629 406.133 405.029 404.8C405.562 403.467 406.496 402.4 407.829 401.6C409.162 400.8 411.029 400.4 413.429 400.4H457.229C463.629 400.4 469.496 401.4 474.829 403.4C480.296 405.267 485.029 408.2 489.029 412.2C493.162 416.067 496.362 420.8 498.629 426.4C500.896 432 502.029 438.467 502.029 445.8C502.029 453 500.896 459.4 498.629 465C496.362 470.6 493.162 475.333 489.029 479.2C484.896 482.933 480.096 485.8 474.629 487.8C469.296 489.8 463.429 490.8 457.029 490.8H422.629V531C422.629 532.867 422.362 534.467 421.829 535.8C421.429 537.133 420.562 538.133 419.229 538.8C418.029 539.6 416.029 540 413.229 540ZM422.629 472.6H457.229C462.562 472.6 467.229 471.6 471.229 469.6C475.229 467.467 478.362 464.4 480.629 460.4C482.896 456.267 484.029 451.267 484.029 445.4C484.029 439.8 482.962 435 480.829 431C478.696 427 475.562 423.933 471.429 421.8C467.429 419.667 462.629 418.6 457.029 418.6H422.629V472.6Z" fill="white"/>
<defs>
<clipPath id="clip0_509_7">
<rect width="135" height="142" fill="white" transform="translate(376 150)"/>
</clipPath>
</defs>
</svg>
