<svg width="94" height="142" viewBox="0 0 94 142" fill="none" xmlns="http://www.w3.org/2000/svg">
<g clip-path="url(#clip0_9_81)">
<path fill-rule="evenodd" clip-rule="evenodd" d="M47 71C47 58.0215 57.5215 47.5 70.5 47.5C83.4785 47.5 94 58.0215 94 71C94 83.9785 83.4785 94.5 70.5 94.5C57.5215 94.5 47 83.9785 47 71Z" fill="#1ABCFE"/>
<path fill-rule="evenodd" clip-rule="evenodd" d="M0 118C0 105.022 10.5213 94.5 23.5 94.5H47V118C47 130.978 36.4785 141.5 23.5 141.5C10.5213 141.5 0 130.978 0 118Z" fill="#0ACF83"/>
<path fill-rule="evenodd" clip-rule="evenodd" d="M47 0.5V47.5H70.5C83.4785 47.5 94 36.9785 94 24C94 11.0213 83.4785 0.5 70.5 0.5H47Z" fill="#FF7262"/>
<path fill-rule="evenodd" clip-rule="evenodd" d="M0 24C0 36.9785 10.5213 47.5 23.5 47.5H47V0.5H23.5C10.5213 0.5 0 11.0213 0 24Z" fill="#F24E1E"/>
<path fill-rule="evenodd" clip-rule="evenodd" d="M0 71C0 83.9785 10.5213 94.5 23.5 94.5H47V47.5H23.5C10.5213 47.5 0 58.0215 0 71Z" fill="#A259FF"/>
</g>
<defs>
<clipPath id="clip0_9_81">
<rect width="94" height="142" fill="white"/>
</clipPath>
</defs>
</svg>
