<svg width="70" height="70" viewBox="0 0 70 70" fill="none" xmlns="http://www.w3.org/2000/svg">
<g clip-path="url(#clip0_7_43)">
<path fill-rule="evenodd" clip-rule="evenodd" d="M35 0C54.3305 0 70 16.0648 70 35.8853C70 51.7368 59.983 65.1839 46.0845 69.9334C44.31 70.2869 43.68 69.1662 43.68 68.2107C43.68 67.0277 43.722 63.1638 43.722 58.3618C43.722 55.0158 42.602 52.832 41.3455 51.719C49.14 50.83 57.33 47.7952 57.33 34.0122C57.33 30.0922 55.972 26.8934 53.725 24.3804C54.089 23.4739 55.2895 19.8238 53.382 14.8818C53.382 14.8818 50.449 13.9203 43.7675 18.5613C40.971 17.7668 37.975 17.367 35 17.353C32.025 17.367 29.0325 17.7668 26.2395 18.5613C19.551 13.9203 16.611 14.8818 16.611 14.8818C14.7105 19.8238 15.911 23.4739 16.2715 24.3804C14.035 26.8934 12.6665 30.0922 12.6665 34.0122C12.6665 47.7602 20.839 50.8416 28.6125 51.7481C27.6115 52.6441 26.705 54.2247 26.39 56.5452C24.395 57.4622 19.327 59.0492 16.205 53.5647C16.205 53.5647 14.3535 50.1167 10.8395 49.8647C10.8395 49.8647 7.427 49.8194 10.6015 52.0454C10.6015 52.0454 12.894 53.1479 14.4865 57.2954C14.4865 57.2954 16.541 63.7003 26.278 61.5303C26.2955 64.5298 26.327 67.3567 26.327 68.2107C26.327 69.1592 25.683 70.2693 23.9365 69.9368C10.0275 65.1943 0 51.7403 0 35.8853C0 16.0648 15.673 0 35 0Z" fill="#BABABA"/>
</g>
<defs>
<clipPath id="clip0_7_43">
<rect width="70" height="70" fill="white"/>
</clipPath>
</defs>
</svg>
