<svg width="124" height="125" viewBox="0 0 124 125" fill="none" xmlns="http://www.w3.org/2000/svg">
<g clip-path="url(#clip0_33_2)">
<path d="M0.199951 9.89998C0.199951 4.79998 4.29995 0.799988 9.29995 0.799988H114.5C119.6 0.799988 123.6 4.89998 123.6 9.89998V115.1C123.6 120.2 119.5 124.2 114.5 124.2H9.29995C4.19995 124.2 0.199951 120.1 0.199951 115.1V9.89998Z" fill="#0B63CE"/>
<path d="M18.5 21.4C18.5 20.1 19.5 19.1 20.8 19.1H34.5C35.8 19.1 36.8 20.1 36.8 21.4V35.1C36.8 36.4 35.8 37.4 34.5 37.4H20.8C19.5 37.4 18.5 36.4 18.5 35.1V21.4Z" fill="white"/>
<path d="M43.6 19.1C42.3 19.1 41.3 20.1 41.3 21.4V35.1C41.3 36.4 42.3 37.4 43.6 37.4H57.3001C58.6001 37.4 59.6 36.4 59.6 35.1V21.4C59.6 20.1 58.6001 19.1 57.3001 19.1H43.6Z" fill="white"/>
<path d="M64.2 21.4C64.2 20.1 65.2 19.1 66.5 19.1H80.2C81.5 19.1 82.5 20.1 82.5 21.4V35.1C82.5 36.4 81.5 37.4 80.2 37.4H66.5C65.2 37.4 64.2 36.4 64.2 35.1V21.4Z" fill="white"/>
<path d="M20.8 42C19.5 42 18.5 43 18.5 44.3V58C18.5 59.3 19.5 60.3 20.8 60.3H34.5C35.8 60.3 36.8 59.3 36.8 58V44.3C36.8 43 35.8 42 34.5 42H20.8Z" fill="white"/>
<path d="M41.3 44.2C41.3 42.9 42.3 41.9 43.6 41.9H57.3001C58.6001 41.9 59.6 42.9 59.6 44.2V58C59.6 59.3 58.6001 60.3 57.3001 60.3H43.6C42.3 60.3 41.3 59.3 41.3 58V44.2Z" fill="white"/>
<path d="M89.4001 42C88.1001 42 87.1001 43 87.1001 44.3V58C87.1001 59.3 88.1001 60.3 89.4001 60.3H103.1C104.4 60.3 105.4 59.3 105.4 58V44.3C105.4 43 104.4 42 103.1 42H89.4001Z" fill="white"/>
<path d="M18.5 67.1C18.5 65.8 19.5 64.8 20.8 64.8H34.5C35.8 64.8 36.8 65.8 36.8 67.1V80.8C36.8 82.1 35.8 83.1 34.5 83.1H20.8C19.5 83.1 18.5 82.1 18.5 80.8V67.1Z" fill="white"/>
<path d="M66.5 64.8C65.2 64.8 64.2 65.8 64.2 67.1V80.8C64.2 82.1 65.2 83.1 66.5 83.1H80.2C81.5 83.1 82.5 82.1 82.5 80.8V67.1C82.5 65.8 81.5 64.8 80.2 64.8H66.5Z" fill="white"/>
<path d="M87.1001 67.1C87.1001 65.8 88.1001 64.8 89.4001 64.8H103.1C104.4 64.8 105.4 65.8 105.4 67.1V80.8C105.4 82.1 104.4 83.1 103.1 83.1H89.4001C88.1001 83.1 87.1001 82.1 87.1001 80.8V67.1Z" fill="white"/>
<path d="M43.6 87.7C42.3 87.7 41.3 88.7 41.3 90V103.7C41.3 105 42.3 106 43.6 106H57.3001C58.6001 106 59.6 105 59.6 103.7V90C59.6 88.7 58.6001 87.7 57.3001 87.7H43.6Z" fill="white"/>
<path d="M64.2 90C64.2 88.7 65.2 87.7 66.5 87.7H80.2C81.5 87.7 82.5 88.7 82.5 90V103.7C82.5 105 81.5 106 80.2 106H66.5C65.2 106 64.2 105 64.2 103.7V90Z" fill="white"/>
<path d="M89.4001 87.7C88.1001 87.7 87.1001 88.7 87.1001 90V103.7C87.1001 105 88.1001 106 89.4001 106H103.1C104.4 106 105.4 105 105.4 103.7V90C105.4 88.7 104.4 87.7 103.1 87.7H89.4001Z" fill="white"/>
</g>
<defs>
<clipPath id="clip0_33_2">
<rect width="124" height="125" fill="white"/>
</clipPath>
</defs>
</svg>
