<svg width="601" height="177" viewBox="0 0 601 177" fill="none" xmlns="http://www.w3.org/2000/svg">
<g clip-path="url(#clip0_33_2)">
<path d="M0.199951 22.9C0.199951 17.8 4.29995 13.8 9.29995 13.8H114.5C119.6 13.8 123.6 17.9 123.6 22.9V128.1C123.6 133.2 119.5 137.2 114.5 137.2H9.29995C4.19995 137.2 0.199951 133.1 0.199951 128.1V22.9Z" fill="#0B63CE"/>
<path d="M18.5 34.4C18.5 33.1 19.5 32.1 20.8 32.1H34.5C35.8 32.1 36.8 33.1 36.8 34.4V48.1C36.8 49.4 35.8 50.4 34.5 50.4H20.8C19.5 50.4 18.5 49.4 18.5 48.1V34.4Z" fill="white"/>
<path d="M43.6 32.1C42.3 32.1 41.3 33.1 41.3 34.4V48.1C41.3 49.4 42.3 50.4 43.6 50.4H57.3001C58.6001 50.4 59.6 49.4 59.6 48.1V34.4C59.6 33.1 58.6001 32.1 57.3001 32.1H43.6Z" fill="white"/>
<path d="M64.2 34.4C64.2 33.1 65.2 32.1 66.5 32.1H80.2C81.5 32.1 82.5 33.1 82.5 34.4V48.1C82.5 49.4 81.5 50.4 80.2 50.4H66.5C65.2 50.4 64.2 49.4 64.2 48.1V34.4Z" fill="white"/>
<path d="M20.8 55C19.5 55 18.5 56 18.5 57.3V71C18.5 72.3 19.5 73.3 20.8 73.3H34.5C35.8 73.3 36.8 72.3 36.8 71V57.3C36.8 56 35.8 55 34.5 55H20.8Z" fill="white"/>
<path d="M41.3 57.2C41.3 55.9 42.3 54.9 43.6 54.9H57.3001C58.6001 54.9 59.6 55.9 59.6 57.2V71C59.6 72.3 58.6001 73.3 57.3001 73.3H43.6C42.3 73.3 41.3 72.3 41.3 71V57.2Z" fill="white"/>
<path d="M89.4001 55C88.1001 55 87.1001 56 87.1001 57.3V71C87.1001 72.3 88.1001 73.3 89.4001 73.3H103.1C104.4 73.3 105.4 72.3 105.4 71V57.3C105.4 56 104.4 55 103.1 55H89.4001Z" fill="white"/>
<path d="M18.5 80.1C18.5 78.8 19.5 77.8 20.8 77.8H34.5C35.8 77.8 36.8 78.8 36.8 80.1V93.8C36.8 95.1 35.8 96.1 34.5 96.1H20.8C19.5 96.1 18.5 95.1 18.5 93.8V80.1Z" fill="white"/>
<path d="M66.5 77.8C65.2 77.8 64.2 78.8 64.2 80.1V93.8C64.2 95.1 65.2 96.1 66.5 96.1H80.2C81.5 96.1 82.5 95.1 82.5 93.8V80.1C82.5 78.8 81.5 77.8 80.2 77.8H66.5Z" fill="white"/>
<path d="M87.1001 80.1C87.1001 78.8 88.1001 77.8 89.4001 77.8H103.1C104.4 77.8 105.4 78.8 105.4 80.1V93.8C105.4 95.1 104.4 96.1 103.1 96.1H89.4001C88.1001 96.1 87.1001 95.1 87.1001 93.8V80.1Z" fill="white"/>
<path d="M43.6 100.7C42.3 100.7 41.3 101.7 41.3 103V116.7C41.3 118 42.3 119 43.6 119H57.3001C58.6001 119 59.6 118 59.6 116.7V103C59.6 101.7 58.6001 100.7 57.3001 100.7H43.6Z" fill="white"/>
<path d="M64.2 103C64.2 101.7 65.2 100.7 66.5 100.7H80.2C81.5 100.7 82.5 101.7 82.5 103V116.7C82.5 118 81.5 119 80.2 119H66.5C65.2 119 64.2 118 64.2 116.7V103Z" fill="white"/>
<path d="M89.4001 100.7C88.1001 100.7 87.1001 101.7 87.1001 103V116.7C87.1001 118 88.1001 119 89.4001 119H103.1C104.4 119 105.4 118 105.4 116.7V103C105.4 101.7 104.4 100.7 103.1 100.7H89.4001Z" fill="white"/>
<path d="M225.2 127.5H171V15.4C171 14.7 170.5 14.3 169.9 14.3H161.4C160.7 14.3 160.3 14.8 160.3 15.4V135.7C160.3 136.4 160.8 136.8 161.4 136.8H225.2C225.9 136.8 226.3 136.3 226.3 135.7V128.4C226.4 127.9 225.9 127.5 225.2 127.5ZM305.5 46.9H286.3V29.1C286.3 16.5 290.4 10.3 298.9 10.3C302.3 10.3 305.8 11.2 309 12.6C309.2 12.8 309.7 12.8 309.9 12.6L310.6 11.9L312.9 5.30003C313.1 4.80003 312.9 4.20002 312.2 3.90002C307.9 2.10002 303.1 0.900024 298.9 0.900024C284.3 0.900024 276 10.7 276 28.3V46.8L265 47.5C264.3 47.5 263.9 48 263.9 48.6V54.8C263.9 55.5 264.4 55.9 265 55.9H276V135.5C276 136.2 276.5 136.6 277.1 136.6H285.1C285.8 136.6 286.2 136.1 286.2 135.5V55.9H305.4C306.1 55.9 306.5 55.4 306.5 54.8V47.7C306.6 47.4 306.2 46.9 305.5 46.9ZM347.1 44.7C328.1 44.7 307.8 61.4 307.8 92C307.8 119.7 325 139.1 349.4 139.1C362.4 139.1 370.4 134.8 377.8 130.4C378.3 130.2 378.5 129.5 378.3 128.8L374.9 122.6C374.7 122.4 374.4 122.1 374.2 122.1C374 122.1 373.5 122.1 373.3 122.3C366 127.6 358.7 129.8 350.4 129.8C331.9 129.8 319.3 115.4 318.6 94.1H380.6C381.1 94.1 381.5 93.6 381.7 93.2C382.2 90.9 382.2 88.4 382.2 86.3C381.7 60.2 368.9 44.7 347.1 44.7ZM318.3 85.1C320.4 66.6 332 53.8 347.1 53.8C362.9 53.8 371.6 65 371.8 85.1H318.3ZM440.2 46.7C437.5 45.3 434.7 44.9 431.1 44.9C422 44.9 413.3 50.6 406.6 61.4L405.9 48.1C405.9 47.4 405.4 47 404.8 47H397.9C397.2 47 396.8 47.5 396.8 48.1V135.9C396.8 136.6 397.3 137 397.9 137H405.9C406.6 137 407 136.5 407 135.9V76.4C412.5 62.7 421 54.7 429.9 54.7C433.1 54.7 434.5 55.2 437.4 56.1H438.3C438.5 55.9 438.8 55.6 438.8 55.4L440.6 48.1C440.9 47.4 440.7 46.9 440.2 46.7ZM512.5 46.9H505.4C504.7 46.9 504.3 47.4 504.3 48L503.8 54.6C496.3 48.7 488.9 44.8 478.4 44.8C455.1 44.8 438.4 64.7 438.4 92.1C438.4 121.6 452.4 139.2 475.9 139.2C485.5 139.2 495.1 134.9 504 126.6L504.7 136C504.7 136.7 505.2 137.1 505.8 137.1H512.7C513.4 137.1 513.8 136.6 513.8 136V47.9C513.6 47.4 513.2 46.9 512.5 46.9ZM503.3 64.8V115.8C493.9 125.4 485.7 129.5 477 129.5C459.6 129.5 449.1 115.3 449.1 91.8C449.1 70.5 462.1 53.8 478.8 53.8C487.6 54 494.9 57.2 503.3 64.8ZM599.8 47.4C599.6 47.2 599.3 46.9 598.9 46.9H590.7C590.2 46.9 589.8 47.1 589.6 47.6L570.8 102.7C569.9 105.7 568.7 108.9 567.8 112.1C566.4 116.7 564.8 121.2 563.5 125.4C561.7 120.8 559.8 115.8 558 111C556.9 108 555.7 105.3 554.8 102.5L533.8 47.4C533.6 46.9 533.1 46.7 532.7 46.7H524C523.5 46.7 523.3 46.9 523.1 47.2C522.9 47.4 522.9 47.9 523.1 48.3L559 137.3L556.7 144.6C553.3 154.9 546.9 167 535.2 167C532.9 167 530.2 166.3 528.3 165.6H527.4L526.7 166.3L524.9 173.4C524.7 173.9 525.1 174.5 525.6 174.8C528.1 175.9 531.8 176.6 535 176.6C548.5 176.6 559 166.3 565.6 146.9L600.1 48.1C600.3 48.1 600.1 47.6 599.8 47.4ZM248.1 27C249.5 27 250.6 25.9 250.6 24.5V16.3C250.6 14.9 249.5 13.8 248.1 13.8H239.9C238.5 13.8 237.4 14.9 237.4 16.3V24.5C237.4 25.9 238.5 27 239.9 27H248.1ZM239.9 46.9H247.9C248.6 46.9 249 47.4 249 48V135.8C249 136.5 248.5 136.9 247.9 136.9H239.9C239.2 136.9 238.8 136.4 238.8 135.8V48C238.7 47.4 239.2 46.9 239.9 46.9Z" fill="white"/>
</g>
<defs>
<clipPath id="clip0_33_2">
<rect width="601" height="177" fill="white"/>
</clipPath>
</defs>
</svg>
