<svg width="63" height="63" viewBox="0 0 63 63" fill="none" xmlns="http://www.w3.org/2000/svg">
<g clip-path="url(#clip0_26_43)">
<path d="M57.7513 11.8931H44.2516V9.05811C44.2516 4.1074 41.0563 0.0818481 37.1267 0.0818481H25.8772C21.9496 0.0818481 18.7523 4.1074 18.7523 9.05811V11.8931H5.25066C2.35462 11.8931 0 14.862 0 18.5081V32.6806V56.3032C0 59.9517 2.35462 62.9157 5.25066 62.9157H57.7513C60.6473 62.9157 63 59.9517 63 56.3032V32.6806V18.5081C63 14.862 60.6473 11.8931 57.7513 11.8931ZM21.7508 9.05811C21.7508 6.19582 23.6014 3.86185 25.8753 3.86185H37.1247C39.3986 3.86185 41.2492 6.19582 41.2492 9.05811V11.8931H21.7508V9.05811ZM3.00038 18.5081C3.00038 16.943 4.01034 15.6731 5.25066 15.6731H57.7513C58.9936 15.6731 60.0016 16.943 60.0016 18.5081V30.7931H3.00038V18.5081ZM40.8752 34.5706H48.3761V39.9232H40.8752V34.5706ZM14.6278 34.5706H22.1287V39.9232H14.6278V34.5706ZM57.7513 59.1382H5.25066C4.01034 59.1382 3.00038 57.8633 3.00038 56.3032V34.5706H11.6274V41.8132C11.6274 42.8598 12.2968 43.7032 13.1276 43.7032H23.627C24.4558 43.7032 25.1272 42.8598 25.1272 41.8132V34.5706H37.8768V41.8132C37.8768 42.8598 38.5501 43.7032 39.377 43.7032H49.8783C50.7071 43.7032 51.3785 42.8598 51.3785 41.8132V34.5706H60.0036V56.3032C60.0016 57.8633 58.9936 59.1382 57.7513 59.1382Z" fill="#939393"/>
</g>
<defs>
<clipPath id="clip0_26_43">
<rect width="63" height="63" fill="white"/>
</clipPath>
</defs>
</svg>
