<svg width="67" height="68" viewBox="0 0 67 68" fill="none" xmlns="http://www.w3.org/2000/svg">
<g clip-path="url(#clip0_26_120)">
<path d="M42.7521 35.3831L41.7226 33.6788C41.0561 34.0878 40.6902 34.8528 40.788 35.633C40.8855 36.4127 41.4283 37.0624 42.1748 37.2919L42.7521 35.3831ZM24.2475 35.3831L24.825 37.2919C25.5712 37.0624 26.1142 36.4127 26.212 35.633C26.3094 34.8528 25.9435 34.0878 25.277 33.6788L24.2475 35.3831ZM49.3393 20.0329C49.3393 25.8112 46.2938 30.8746 41.7226 33.6788L43.7817 37.0875C49.4838 33.5894 53.2991 27.2611 53.2991 20.0329H49.3393ZM33.5 4.07042C42.2476 4.07042 49.3393 11.217 49.3393 20.0329H53.2991C53.2991 9.01311 44.4346 0.0798111 33.5 0.0798111V4.07042ZM17.6606 20.0329C17.6606 11.217 24.7521 4.07042 33.5 4.07042V0.0798111C22.5652 0.0798111 13.7008 9.01311 13.7008 20.0329H17.6606ZM25.277 33.6788C20.706 30.8746 17.6606 25.8113 17.6606 20.0329H13.7008C13.7008 27.2611 17.5159 33.5894 23.218 37.0875L25.277 33.6788ZM23.6701 33.4744C11.17 37.3158 1.75642 48.288 0.100749 61.6956L4.03023 62.1885C5.48981 50.3687 13.7952 40.6811 24.825 37.2919L23.6701 33.4744ZM0.100749 61.6956C-0.33685 65.2393 2.57607 67.9202 5.78118 67.9202V63.9296C4.61244 63.9296 3.92767 63.0193 4.03023 62.1885L0.100749 61.6956ZM5.78118 67.9202H61.2187V63.9296H5.78118V67.9202ZM61.2187 67.9202C64.4238 67.9202 67.3366 65.2393 66.899 61.6956L62.9693 62.1885C63.0719 63.0193 62.3872 63.9296 61.2187 63.9296V67.9202ZM66.899 61.6956C65.2434 48.288 55.8298 37.3158 43.3294 33.4744L42.1748 37.2919C53.2044 40.6811 61.5097 50.3687 62.9693 62.1885L66.899 61.6956Z" fill="#939393"/>
</g>
<defs>
<clipPath id="clip0_26_120">
<rect width="67" height="68" fill="white"/>
</clipPath>
</defs>
</svg>
