<svg width="166" height="170" viewBox="0 0 166 170" fill="none" xmlns="http://www.w3.org/2000/svg">
<path d="M81.8434 1.50524C75.012 1.53654 68.4892 2.11923 62.7502 3.1356C45.8418 6.12359 42.7718 12.3753 42.7718 23.907V39.1361H82.7286V44.2119H27.7754C16.1633 44.2119 5.99382 51.1924 2.81361 64.4707C-0.855398 79.6908 -1.01784 89.1883 2.81361 105.081C5.65404 116.91 12.4377 125.339 24.0498 125.339H37.7884V107.083C37.7884 93.8946 49.1993 82.2615 62.7502 82.2615H102.661C113.771 82.2615 122.639 73.1143 122.639 61.9566V23.9055C122.639 13.0772 113.504 4.94181 102.661 3.13411C95.7952 1.99256 88.6747 1.47245 81.8434 1.50524ZM60.2347 13.7523C64.3627 13.7523 67.7321 17.1784 67.7321 21.3899C67.7321 25.5865 64.3612 28.9814 60.2347 28.9814C56.0932 28.9814 52.7372 25.588 52.7372 21.3899C52.7372 17.1784 56.0932 13.7523 60.2347 13.7523Z" fill="url(#paint0_linear_9_92)"/>
<path d="M127.623 44.2104V61.9536C127.623 75.7103 115.96 87.2882 102.661 87.2882H62.7502C51.8177 87.2882 42.7719 96.6441 42.7719 107.593V145.641C42.7719 156.471 52.1873 162.84 62.7502 165.946C75.398 169.666 87.5272 170.338 102.661 165.946C112.72 163.034 122.639 157.171 122.639 145.641V130.414H82.7286V125.338H142.618C154.231 125.338 158.557 117.237 162.596 105.079C166.769 92.5638 166.591 80.5254 162.596 64.4692C159.726 52.9092 154.244 44.2104 142.618 44.2104H127.623ZM105.175 140.565C109.316 140.565 112.672 143.959 112.672 148.157C112.672 152.368 109.316 155.794 105.175 155.794C101.047 155.794 97.6774 152.368 97.6774 148.157C97.6774 143.96 101.048 140.565 105.175 140.565Z" fill="url(#paint1_linear_9_92)"/>
<defs>
<linearGradient id="paint0_linear_9_92" x1="-3.94023" y1="6.26066" x2="88.2006" y2="84.7666" gradientUnits="userSpaceOnUse">
<stop stop-color="#5A9FD4"/>
<stop offset="1" stop-color="#306998"/>
</linearGradient>
<linearGradient id="paint1_linear_9_92" x1="122.773" y1="133.708" x2="89.7151" y2="87.3889" gradientUnits="userSpaceOnUse">
<stop stop-color="#FFD43B"/>
<stop offset="1" stop-color="#FFE873"/>
</linearGradient>
</defs>
</svg>
