<svg width="61" height="63" viewBox="0 0 61 63" fill="none" xmlns="http://www.w3.org/2000/svg">
<g clip-path="url(#clip0_26_32)">
<path d="M39.3293 59.8407C41.3883 59.8407 41.3883 62.9918 39.3293 62.9918H1.60125C0.736671 62.9918 0.0359116 62.2859 0.0359116 61.4159V13.9698C0.0359116 13.5347 0.211102 13.1402 0.493984 12.8555L12.8028 0.469872C13.1084 0.162311 13.5089 0.00814819 13.9093 0.00814819H49.3181C50.1827 0.00814819 50.8842 0.71409 50.8842 1.58411V29.1624C50.8842 31.2352 47.7528 31.2352 47.7528 29.1624V3.15932H14.5577L3.16734 14.6223V59.8407H39.3293ZM12.6936 45.9523C10.6338 45.9523 10.6338 42.8012 12.6936 42.8012H35.9514C38.0112 42.8012 38.0112 45.9523 35.9514 45.9523H12.6936ZM12.6936 24.9893C10.6338 24.9893 10.6338 21.8381 12.6936 21.8381H35.9514C38.0112 21.8381 38.0112 24.9893 35.9514 24.9893H12.6936ZM12.6936 31.977C10.6338 31.977 10.6338 28.8258 12.6936 28.8258H35.9514C38.0112 28.8258 38.0112 31.977 35.9514 31.977H12.6936ZM12.6936 38.9647C10.6338 38.9647 10.6338 35.8135 12.6936 35.8135H35.9514C38.0112 35.8135 38.0112 38.9647 35.9514 38.9647H12.6936ZM12.6936 18.0016C10.6338 18.0016 10.6338 14.8505 12.6936 14.8505H35.9514C38.0112 14.8505 38.0112 18.0016 35.9514 18.0016H12.6936ZM50.3533 36.1844C54.1332 36.1844 57.1971 39.2676 57.1971 43.0713C57.1971 44.4527 56.7929 45.7386 56.0974 46.8163C58.9468 48.7189 60.7593 51.8593 60.9611 55.3028C61.0816 57.368 57.9616 57.5519 57.8418 55.4875C57.6817 52.7637 56.127 50.3376 53.7366 49.0585C52.7385 49.6309 51.5842 49.9575 50.3533 49.9575C49.0216 49.9575 47.7786 49.5751 46.7274 48.9127C44.1914 50.143 42.5108 52.6553 42.3447 55.4875C42.2241 57.5519 39.1048 57.368 39.2254 55.3028C39.437 51.7021 41.4058 48.4434 44.4644 46.5812C43.8584 45.5532 43.5103 44.3535 43.5103 43.0713C43.5103 39.2684 46.5742 36.1844 50.3533 36.1844ZM50.3533 39.3356C48.3034 39.3356 46.6417 41.0085 46.6417 43.0713C46.6417 45.1342 48.3034 46.8063 50.3533 46.8063C52.4033 46.8063 54.0657 45.1342 54.0657 43.0713C54.0657 41.0085 52.4041 39.3356 50.3533 39.3356Z" fill="#939393"/>
</g>
<defs>
<clipPath id="clip0_26_32">
<rect width="61" height="63" fill="white"/>
</clipPath>
</defs>
</svg>
