<svg width="66" height="66" viewBox="0 0 66 66" fill="none" xmlns="http://www.w3.org/2000/svg">
<g clip-path="url(#clip0_26_35)">
<path d="M32.9986 23.5164C27.7699 23.5164 23.5161 27.7702 23.5161 32.9988C23.5161 38.2274 27.7699 42.4812 32.9986 42.4812C38.2272 42.4812 42.481 38.2274 42.481 32.9988C42.481 27.7702 38.227 23.5164 32.9986 23.5164ZM32.9986 38.0219C30.2288 38.0219 27.9755 35.7686 27.9755 32.9988C27.9755 30.229 30.2288 27.9757 32.9986 27.9757C35.7683 27.9757 38.0217 30.229 38.0217 32.9988C38.0217 35.7683 35.7681 38.0219 32.9986 38.0219Z" fill="#939393"/>
<path d="M57.5754 26.147C57.1607 26.5619 56.922 27.137 56.922 27.7235C56.922 28.3099 57.1607 28.885 57.5754 29.2999C57.9922 29.7168 58.5654 29.953 59.1518 29.953C59.7382 29.953 60.3134 29.7168 60.7282 29.2999C61.1449 28.885 61.3816 28.3099 61.3816 27.7235C61.3816 27.137 61.1451 26.5639 60.7282 26.147C60.3134 25.7324 59.7402 25.4937 59.1518 25.4937C58.5654 25.4937 57.99 25.7324 57.5754 26.147Z" fill="#939393"/>
<path d="M38.1268 57.302C37.5403 57.302 36.9652 57.5407 36.5503 57.9554C36.1357 58.3703 35.8972 58.9454 35.8972 59.5318C35.8972 60.1183 36.1359 60.6934 36.5503 61.1082C36.9672 61.5251 37.5403 61.7616 38.1268 61.7616C38.7132 61.7616 39.2883 61.5254 39.7032 61.1082C40.1199 60.6934 40.3565 60.1183 40.3565 59.5318C40.3565 58.9454 40.1201 58.3723 39.7032 57.9554C39.2883 57.5407 38.7152 57.302 38.1268 57.302Z" fill="#939393"/>
<path d="M46.9052 19.0923C43.7085 15.8957 40.3596 13.0017 36.9712 10.4857C39.7001 8.82082 42.4054 7.45216 45.0205 6.42883C51.6987 3.81595 57.0138 3.80261 59.6042 6.39305C62.2413 9.03015 62.1831 14.4597 59.4447 21.2897C58.9863 22.4325 59.5414 23.7308 60.6842 24.189C61.8276 24.6474 63.1256 24.0928 63.5836 22.9494C67.0689 14.2575 66.7753 7.25771 62.7578 3.23972C58.7996 -0.718262 51.9234 -1.06115 43.3956 2.27595C40.0161 3.59839 36.5094 5.44327 32.9988 7.72215C29.4881 5.44327 25.9815 3.59839 22.6017 2.27595C14.0746 -1.06048 7.1982 -0.718484 3.23977 3.23995C-0.71866 7.19816 -1.06088 14.0746 2.276 22.6019C3.59844 25.9816 5.44332 29.4883 7.7222 32.9987C5.4431 36.5094 3.59821 40.016 2.27577 43.3958C-1.0611 51.9233 -0.718883 58.7993 3.23955 62.758C5.39599 64.9144 8.41731 65.9973 12.1011 65.9973C15.1791 65.9973 18.7199 65.2406 22.6017 63.7217C30.5332 60.618 39.1645 54.6458 46.905 46.9054C50.0927 43.7176 52.9765 40.3858 55.5103 36.9689C57.1758 39.6987 58.5451 42.4049 59.5687 45.0209C62.1818 51.6989 62.1949 57.0144 59.6045 59.6047C56.9678 62.2415 51.5381 62.1833 44.7079 59.4449C43.5647 58.9869 42.267 59.542 41.8085 60.6846C41.3503 61.8278 41.9054 63.1257 43.0483 63.584C47.0707 65.1966 50.7296 66.0002 53.8994 66C57.5791 65.9997 60.5996 64.9162 62.758 62.7578C66.7162 58.7993 67.0584 51.9229 63.7218 43.3956C60.6176 35.4641 54.6454 26.8328 46.9052 19.0923ZM6.42865 20.9768C3.81555 14.299 3.80244 8.98348 6.39287 6.39327C8.98286 3.80283 14.2988 3.81595 20.9764 6.42883C23.5915 7.45216 26.297 8.82082 29.0259 10.4857C25.6375 13.0017 22.2888 15.8959 19.0922 19.0926C15.8955 22.2892 13.0015 25.6379 10.4855 29.0263C8.82064 26.2974 7.45198 23.5919 6.42865 20.9768ZM20.9766 59.5689C14.2986 62.1818 8.98331 62.1951 6.39287 59.6047C3.80244 57.0144 3.81555 51.6987 6.42865 45.0209C7.45198 42.4058 8.82064 39.7003 10.4855 36.9714C13.0015 40.36 15.8955 43.7087 19.0924 46.9056C22.2799 50.0931 25.6119 52.9769 29.0286 55.5107C26.2986 57.176 23.5924 58.5453 20.9766 59.5689ZM43.7516 43.752C40.2899 47.2138 36.655 50.2945 33.005 52.886C29.3035 50.2622 25.6895 47.196 22.2457 43.752C18.7819 40.2883 15.6995 36.6512 13.1071 32.9987C15.6995 29.3465 18.7817 25.7094 22.2455 22.2459C25.7093 18.7821 29.3463 15.6997 32.9988 13.1072C36.6512 15.6997 40.2883 18.7821 43.7521 22.2457C47.2138 25.7074 50.2945 29.3423 52.8861 32.9925C50.2621 36.6941 47.1958 40.308 43.7516 43.752Z" fill="#939393"/>
</g>
<defs>
<clipPath id="clip0_26_35">
<rect width="66" height="66" fill="white"/>
</clipPath>
</defs>
</svg>
