<svg width="75" height="75" viewBox="0 0 75 75" fill="none" xmlns="http://www.w3.org/2000/svg">
<g clip-path="url(#clip0_6_22)">
<path d="M42.7963 2.19156L44.5479 1.97258C44.4378 1.08913 43.6868 0.42614 42.7963 0.42614V2.19156ZM32.2037 2.19156V0.42614C31.3133 0.42614 30.5623 1.08913 30.4521 1.97258L32.2037 2.19156ZM43.7662 9.95073L42.0145 10.1697C42.1067 10.9074 42.6512 11.5083 43.376 11.6726L43.7662 9.95073ZM52.5474 13.5905L51.6057 15.0837C52.2346 15.4803 53.0442 15.4405 53.6314 14.984L52.5474 13.5905ZM58.7218 8.7881L59.9703 7.53977C59.3408 6.91018 58.3408 6.84793 57.6378 7.39458L58.7218 8.7881ZM66.2118 16.2781L67.6054 17.362C68.152 16.6592 68.0898 15.6594 67.4603 15.0298L66.2118 16.2781ZM61.4095 22.4526L60.0159 21.3688C59.5597 21.9556 59.5198 22.7655 59.9163 23.3944L61.4095 22.4526ZM65.0494 31.2338L63.3274 31.624C63.4916 32.3489 64.0926 32.8933 64.8302 32.9855L65.0494 31.2338ZM72.8085 32.2037H74.5739C74.5739 31.3133 73.9108 30.5622 73.0274 30.4521L72.8085 32.2037ZM72.8085 42.7963L73.0274 44.5479C73.9108 44.4378 74.5739 43.6867 74.5739 42.7963H72.8085ZM65.0494 43.7662L64.8302 42.0145C64.0926 42.1067 63.4916 42.6512 63.3274 43.376L65.0494 43.7662ZM61.4095 52.5474L59.9163 51.6057C59.5198 52.2346 59.5597 53.0445 60.0159 53.6314L61.4095 52.5474ZM66.2118 58.7218L67.4603 59.9703C68.0898 59.3408 68.152 58.3408 67.6054 57.6378L66.2118 58.7218ZM58.7218 66.2118L57.6378 67.6054C58.3408 68.152 59.3408 68.0898 59.9703 67.4603L58.7218 66.2118ZM52.5474 61.4095L53.6314 60.0158C53.0442 59.5597 52.2346 59.5198 51.6057 59.9163L52.5474 61.4095ZM43.7662 65.0494L43.376 63.3274C42.6512 63.4916 42.1067 64.0926 42.0145 64.8302L43.7662 65.0494ZM42.7963 72.8085V74.5739C43.6868 74.5739 44.4378 73.9108 44.5479 73.0274L42.7963 72.8085ZM32.2037 72.8085L30.4521 73.0274C30.5623 73.9108 31.3133 74.5739 32.2037 74.5739V72.8085ZM31.2338 65.0494L32.9855 64.8302C32.8933 64.0926 32.3489 63.4916 31.624 63.3274L31.2338 65.0494ZM22.4527 61.4095L23.3944 59.9163C22.7656 59.5198 21.9557 59.5597 21.3688 60.0158L22.4527 61.4095ZM16.2782 66.2118L15.0299 67.4603C15.6594 68.0898 16.6593 68.152 17.3621 67.6054L16.2782 66.2118ZM8.78814 58.7218L7.39462 57.6378C6.84798 58.3408 6.91023 59.3408 7.53981 59.9703L8.78814 58.7218ZM13.5905 52.5474L14.9841 53.6314C15.4405 53.0445 15.4804 52.2346 15.0838 51.6057L13.5905 52.5474ZM9.95074 43.7662L11.6726 43.376C11.5083 42.6512 10.9074 42.1067 10.1697 42.0145L9.95074 43.7662ZM2.19157 42.7963H0.426147C0.426147 43.6867 1.08913 44.4378 1.97259 44.5479L2.19157 42.7963ZM2.19157 32.2037L1.97259 30.4521C1.08913 30.5622 0.426147 31.3133 0.426147 32.2037H2.19157ZM9.95074 31.2338L10.1697 32.9855C10.9074 32.8933 11.5083 32.3489 11.6726 31.624L9.95074 31.2338ZM13.5905 22.4526L15.0838 23.3944C15.4804 22.7655 15.4405 21.9556 14.9841 21.3688L13.5905 22.4526ZM8.78814 16.2782L7.53981 15.0298C6.91023 15.6594 6.84798 16.6592 7.39459 17.362L8.78814 16.2782ZM16.2782 8.78813L17.3621 7.39458C16.6593 6.84797 15.6594 6.91022 15.0299 7.53977L16.2782 8.78813ZM22.4527 13.5905L21.3688 14.984C21.9556 15.4405 22.7656 15.4804 23.3944 15.0837L22.4527 13.5905ZM31.2338 9.95073L31.624 11.6726C32.3489 11.5083 32.8933 10.9074 32.9855 10.1697L31.2338 9.95073ZM42.7963 0.42614H32.2037V3.95698H42.7963V0.42614ZM45.5179 9.73175L44.5479 1.97258L41.0446 2.41055L42.0145 10.1697L45.5179 9.73175ZM53.4891 12.0972C50.6626 10.3146 47.5167 8.99003 44.156 8.22892L43.376 11.6726C46.3377 12.3433 49.1115 13.5108 51.6057 15.0837L53.4891 12.0972ZM53.6314 14.984L59.8058 10.1817L57.6378 7.39458L51.4634 12.197L53.6314 14.984ZM57.4736 10.0365L64.9636 17.5265L67.4603 15.0298L59.9703 7.53977L57.4736 10.0365ZM64.8185 15.1943L60.0159 21.3688L62.8031 23.5365L67.6054 17.362L64.8185 15.1943ZM66.7711 30.844C66.0102 27.4835 64.6854 24.3375 62.9027 21.5109L59.9163 23.3944C61.4893 25.8884 62.6566 28.6621 63.3274 31.624L66.7711 30.844ZM73.0274 30.4521L65.2683 29.4821L64.8302 32.9855L72.5895 33.9554L73.0274 30.4521ZM74.5739 42.7963V32.2037H71.043V42.7963H74.5739ZM65.2683 45.5178L73.0274 44.5479L72.5895 41.0446L64.8302 42.0145L65.2683 45.5178ZM62.9027 53.4891C64.6854 50.6626 66.0102 47.5167 66.7711 44.156L63.3274 43.376C62.6566 46.3377 61.4893 49.1115 59.9163 51.6057L62.9027 53.4891ZM67.6054 57.6378L62.8031 51.4634L60.0159 53.6314L64.8185 59.8058L67.6054 57.6378ZM59.9703 67.4603L67.4603 59.9703L64.9636 57.4736L57.4736 64.9636L59.9703 67.4603ZM51.4634 62.8031L57.6378 67.6054L59.8058 64.8185L53.6314 60.0158L51.4634 62.8031ZM44.156 66.7711C47.5167 66.0102 50.6626 64.6854 53.4891 62.9027L51.6057 59.9163C49.1115 61.4893 46.3377 62.6566 43.376 63.3274L44.156 66.7711ZM44.5479 73.0274L45.5179 65.2683L42.0145 64.8302L41.0446 72.5895L44.5479 73.0274ZM32.2037 74.5739H42.7963V71.043H32.2037V74.5739ZM29.4821 65.2683L30.4521 73.0274L33.9554 72.5895L32.9855 64.8302L29.4821 65.2683ZM21.5109 62.9027C24.3375 64.6854 27.4835 66.0102 30.844 66.7711L31.624 63.3274C28.6622 62.6566 25.8884 61.4893 23.3944 59.9163L21.5109 62.9027ZM17.3621 67.6054L23.5365 62.8031L21.3688 60.0158L15.1943 64.8185L17.3621 67.6054ZM7.53981 59.9703L15.0299 67.4603L17.5266 64.9636L10.0365 57.4736L7.53981 59.9703ZM12.197 51.4634L7.39462 57.6378L10.1817 59.8058L14.9841 53.6314L12.197 51.4634ZM8.22892 44.156C8.99003 47.5167 10.3146 50.6626 12.0972 53.4891L15.0838 51.6057C13.5109 49.1115 12.3433 46.3377 11.6726 43.376L8.22892 44.156ZM1.97259 44.5479L9.73176 45.5178L10.1697 42.0145L2.41055 41.0446L1.97259 44.5479ZM0.426147 32.2037V42.7963H3.95699V32.2037H0.426147ZM9.73176 29.4821L1.97259 30.4521L2.41055 33.9554L10.1697 32.9855L9.73176 29.4821ZM12.0972 21.5109C10.3146 24.3375 8.99003 27.4835 8.22892 30.844L11.6726 31.624C12.3433 28.6622 13.5109 25.8884 15.0838 23.3944L12.0972 21.5109ZM7.39459 17.362L12.197 23.5365L14.9841 21.3688L10.1817 15.1943L7.39459 17.362ZM15.0299 7.53977L7.53981 15.0298L10.0365 17.5265L17.5265 10.0365L15.0299 7.53977ZM23.5365 12.197L17.3621 7.39458L15.1943 10.1817L21.3688 14.984L23.5365 12.197ZM30.844 8.22892C27.4835 8.99003 24.3375 10.3146 21.5109 12.0972L23.3944 15.0837C25.8884 13.5108 28.6622 12.3433 31.624 11.6726L30.844 8.22892ZM30.4521 1.97258L29.4821 9.73175L32.9855 10.1697L33.9554 2.41055L30.4521 1.97258Z" fill="#BABABA"/>
<path d="M37.5 51.6234C45.3001 51.6234 51.6233 45.3001 51.6233 37.5C51.6233 29.6999 45.3001 23.3766 37.5 23.3766C29.6998 23.3766 23.3766 29.6999 23.3766 37.5C23.3766 45.3001 29.6998 51.6234 37.5 51.6234Z" stroke="#BABABA" stroke-width="4" stroke-linejoin="round"/>
</g>
<defs>
<clipPath id="clip0_6_22">
<rect width="75" height="75" fill="white"/>
</clipPath>
</defs>
</svg>
