<svg width="63" height="65" viewBox="0 0 63 65" fill="none" xmlns="http://www.w3.org/2000/svg">
<g clip-path="url(#clip0_26_30)">
<path fill-rule="evenodd" clip-rule="evenodd" d="M50.5372 0C43.6964 0 38.1506 4.85023 38.1506 10.8333C38.1506 11.4864 38.2166 12.1259 38.3435 12.7471L20.3136 23.7853C20.222 23.8413 20.1353 23.9013 20.0536 23.9646C17.9507 22.5249 15.3023 21.6667 12.4247 21.6667C5.58375 21.6667 0.0381126 26.517 0.0381126 32.5C0.0381126 38.483 5.58375 43.3333 12.4247 43.3333C15.3023 43.3333 17.9507 42.475 20.0536 41.0353C20.1353 41.0987 20.222 41.1587 20.3136 41.2147L38.3435 52.253C38.2166 52.874 38.1506 53.5137 38.1506 54.1667C38.1506 60.1497 43.6964 65 50.5372 65C57.378 65 62.9238 60.1497 62.9238 54.1667C62.9238 48.1837 57.378 43.3333 50.5372 43.3333C46.5247 43.3333 42.9578 45.002 40.6943 47.589L23.6224 37.137C24.3847 35.7313 24.8113 34.1593 24.8113 32.5C24.8113 30.8407 24.3847 29.2687 23.6224 27.863L40.6943 17.411C42.9578 19.9981 46.5247 21.6667 50.5372 21.6667C57.378 21.6667 62.9238 16.8164 62.9238 10.8333C62.9238 4.85023 57.378 0 50.5372 0ZM43.8675 10.8333C43.8675 7.61167 46.8536 5 50.5372 5C54.2208 5 57.2069 7.61167 57.2069 10.8333C57.2069 14.055 54.2208 16.6667 50.5372 16.6667C46.8536 16.6667 43.8675 14.055 43.8675 10.8333ZM12.4247 26.6667C8.74111 26.6667 5.75499 29.2783 5.75499 32.5C5.75499 35.7217 8.74111 38.3333 12.4247 38.3333C16.1083 38.3333 19.0944 35.7217 19.0944 32.5C19.0944 29.2783 16.1083 26.6667 12.4247 26.6667ZM50.5372 48.3333C46.8536 48.3333 43.8675 50.945 43.8675 54.1667C43.8675 57.3883 46.8536 60 50.5372 60C54.2208 60 57.2069 57.3883 57.2069 54.1667C57.2069 50.945 54.2208 48.3333 50.5372 48.3333Z" fill="#939393"/>
</g>
<defs>
<clipPath id="clip0_26_30">
<rect width="63" height="65" fill="white"/>
</clipPath>
</defs>
</svg>
