<svg width="70" height="70" viewBox="0 0 70 70" fill="none" xmlns="http://www.w3.org/2000/svg">
<path d="M49.5139 20.8564C49.5276 20.8564 49.5459 20.8564 49.5642 20.8564C50.0418 20.8564 50.4852 21.0049 50.8486 21.2609L50.8417 21.2563C51.1069 21.4871 51.2851 21.8117 51.3286 22.1774V22.1842C51.3743 22.463 51.3994 22.783 51.3994 23.1098C51.3994 23.2584 51.3948 23.4046 51.3834 23.5509V23.5303C50.8692 28.9446 48.6386 42.0745 47.505 48.1355C47.0251 50.702 46.0812 51.5614 45.167 51.6436C43.1809 51.8287 41.6725 50.3318 39.7482 49.0702C36.736 47.0933 35.0333 45.8637 32.1102 43.9371C28.73 41.7134 30.9218 40.4861 32.8461 38.4886C33.3512 37.9629 42.1068 29.9982 42.2782 29.276C42.2873 29.2325 42.2919 29.1845 42.2919 29.1343C42.2919 28.956 42.2256 28.7937 42.1182 28.6703C41.9994 28.5926 41.8508 28.5492 41.6954 28.5492C41.5925 28.5492 41.4943 28.5697 41.4029 28.604L41.4074 28.6017C41.1057 28.6703 36.2941 31.8501 26.9725 38.1412C25.9555 38.9434 24.6711 39.4508 23.2724 39.5102H23.2587C21.2772 39.2702 19.4786 38.8291 17.7713 38.2006L17.9404 38.2555C15.7967 37.5561 14.094 37.1882 14.2403 36.0043C14.318 35.3888 15.1667 34.7587 16.7863 34.1142C26.763 29.7673 33.416 26.9021 36.7451 25.5187C40.4178 23.5692 44.6756 21.9648 49.1528 20.9249L49.5116 20.8541L49.5139 20.8564ZM35.3624 0.253052C16.3886 0.298761 1.02356 15.6912 1.02356 34.6719C1.02356 53.68 16.4321 69.0907 35.4424 69.0907C54.4528 69.0907 69.8612 53.6822 69.8612 34.6719C69.8612 15.6912 54.4962 0.298761 35.527 0.253052H35.5224C35.4691 0.253052 35.4157 0.253052 35.3624 0.253052Z" fill="#BABABA"/>
</svg>
