<svg width="70" height="70" viewBox="0 0 70 70" fill="none" xmlns="http://www.w3.org/2000/svg">
<g clip-path="url(#clip0_7_37)">
<path fill-rule="evenodd" clip-rule="evenodd" d="M69.2681 45.5408V24.5437C69.2681 5.36488 64.7398 0.801913 45.5553 0.801913C-1.35938 0.500891 0.489333 -1.40702 0.804071 45.5055C0.804071 64.6842 5.33239 69.2472 24.5169 69.2472H40.4408C60.8236 69.5988 69.7807 68.1976 69.2681 45.5408ZM56.0751 49.6411H51.0827C49.1928 49.6411 48.6225 48.1078 45.2348 44.7215C42.2751 41.8694 41.0269 41.5128 40.2784 41.5128C39.2439 41.5128 38.9588 41.7979 38.9588 43.2236V47.7151C38.9588 48.9272 38.5668 49.6404 35.3927 49.6404C30.1151 49.6404 24.3033 46.4316 20.1662 40.5144C13.9617 31.8519 12.2855 25.2922 12.2855 23.9734C12.2855 23.2248 12.5706 22.547 13.9971 22.547H18.9895C20.273 22.547 20.7365 23.1172 21.236 24.4361C23.2825 31.1452 30.2927 42.309 30.4002 35.8793V28.5356C30.1865 25.1847 28.4035 24.8995 28.4035 23.6875C28.4035 23.1526 28.9031 22.547 29.687 22.547H37.5316C38.6014 22.547 38.9581 23.0819 38.9581 24.3646V34.2753C39.0938 36.6517 40.5722 35.7168 42.0607 34.1684C45.6621 30.1757 48.1937 23.9727 48.1937 23.9727C48.515 23.2241 49.0852 22.547 50.3687 22.547H55.3612C56.8591 22.547 57.1796 23.2955 56.8591 24.3654C56.2527 27.2882 50.1551 35.8439 50.1551 35.88C49.6201 36.7 49.4065 37.1281 50.1551 38.0904C51.5923 39.8813 62.0653 49.3393 56.0751 49.6411Z" fill="#BABABA"/>
</g>
<defs>
<clipPath id="clip0_7_37">
<rect width="70" height="70" fill="white"/>
</clipPath>
</defs>
</svg>
