<svg width="386" height="506" viewBox="0 0 386 506" fill="none" xmlns="http://www.w3.org/2000/svg">
<g clip-path="url(#clip0_509_14)">
<path fill-rule="evenodd" clip-rule="evenodd" d="M265.718 66.9909C266.683 64.0976 269.391 62.1461 272.441 62.1461H364.559C367.609 62.1461 370.317 64.0976 371.282 66.9909L376.753 83.4023H378.731C382.645 83.4023 385.817 86.5746 385.817 90.4877C385.817 94.4008 382.645 97.5731 378.731 97.5731H371.645H370.972L360.981 197.474C360.619 201.096 357.571 203.854 353.93 203.854H283.07C279.429 203.854 276.381 201.096 276.019 197.474L266.028 97.5731H265.355H258.269C254.355 97.5731 251.183 94.4008 251.183 90.4877C251.183 86.5746 254.355 83.4023 258.269 83.4023H260.247L265.718 66.9909ZM280.271 97.5731L289.483 189.683H347.517L356.729 97.5731H280.271ZM361.814 83.4023H275.186L277.548 76.3169H359.452L361.814 83.4023Z" fill="white"/>
</g>
<path d="M56.2156 205.2C54.2156 205.2 52.6156 204.867 51.4156 204.2C50.349 203.667 49.549 202.933 49.0156 202C48.4823 200.933 48.0823 199.933 47.8156 199L7.01563 78.4C5.94896 75.2 5.74896 72.8 6.41563 71.2C7.21563 69.4667 9.28229 68.0667 12.6156 67C14.749 66.3333 16.4823 66.0667 17.8156 66.2C19.2823 66.2 20.4823 66.7333 21.4156 67.8C22.4823 68.7333 23.349 70.2667 24.0156 72.4L57.0156 173L87.2156 73.2C87.6156 72 88.0823 70.8667 88.6156 69.8C89.2823 68.7333 90.2156 67.9333 91.4156 67.4C92.6156 66.7333 94.2156 66.4 96.2156 66.4C98.4823 66.4 100.216 66.7333 101.416 67.4C102.616 68.0667 103.482 68.8667 104.016 69.8C104.682 70.6 105.082 71.4667 105.216 72.4L136.016 173.6L168.816 72.8C169.616 70.5333 170.482 68.8667 171.416 67.8C172.349 66.6 173.549 65.9333 175.016 65.8C176.616 65.6667 178.549 66 180.816 66.8C183.082 67.4667 184.682 68.2667 185.616 69.2C186.549 70.1333 187.016 71.3333 187.016 72.8C187.016 74.2667 186.682 76.1333 186.016 78.4L145.216 199.2C144.949 200.133 144.482 201.067 143.816 202C143.282 202.933 142.416 203.667 141.216 204.2C140.149 204.867 138.616 205.2 136.616 205.2C134.749 205.2 133.216 204.867 132.016 204.2C130.816 203.533 129.882 202.667 129.216 201.6C128.682 200.4 128.216 199.333 127.816 198.4L96.4156 97.4L65.0156 198.4C64.749 199.333 64.2823 200.4 63.6156 201.6C62.949 202.667 62.0156 203.533 60.8156 204.2C59.749 204.867 58.2156 205.2 56.2156 205.2Z" fill="white"/>
<path d="M148.654 312.4C150.387 312.4 151.787 312.6 152.854 313C154.054 313.4 154.987 314.2 155.654 315.4C156.321 316.467 156.654 318.267 156.654 320.8C156.654 323.2 156.254 325 155.454 326.2C154.787 327.4 153.854 328.2 152.654 328.6C151.454 328.867 149.987 329 148.254 329H106.854V443.2C106.854 444.933 106.587 446.467 106.054 447.8C105.654 449.133 104.787 450.133 103.454 450.8C102.254 451.6 100.387 452 97.8539 452C95.1872 452 93.1872 451.6 91.8539 450.8C90.6539 450.133 89.8539 449.133 89.4539 447.8C89.1872 446.333 89.0539 444.733 89.0539 443V329H47.0539C45.3206 329 43.8539 328.867 42.6539 328.6C41.4539 328.2 40.5206 327.4 39.8539 326.2C39.1872 325 38.8539 323.2 38.8539 320.8C38.8539 318.267 39.1206 316.467 39.6539 315.4C40.3206 314.2 41.2539 313.4 42.4539 313C43.7872 312.6 45.2539 312.4 46.8539 312.4H148.654ZM288.229 452C285.696 452 283.762 451.6 282.429 450.8C281.229 450.133 280.429 449.133 280.029 447.8C279.629 446.333 279.429 444.667 279.429 442.8V321.4C279.429 319.667 279.629 318.133 280.029 316.8C280.562 315.467 281.496 314.4 282.829 313.6C284.162 312.8 286.029 312.4 288.429 312.4H332.229C338.629 312.4 344.496 313.4 349.829 315.4C355.296 317.267 360.029 320.2 364.029 324.2C368.162 328.067 371.362 332.8 373.629 338.4C375.896 344 377.029 350.467 377.029 357.8C377.029 365 375.896 371.4 373.629 377C371.362 382.6 368.162 387.333 364.029 391.2C359.896 394.933 355.096 397.8 349.629 399.8C344.296 401.8 338.429 402.8 332.029 402.8H297.629V443C297.629 444.867 297.362 446.467 296.829 447.8C296.429 449.133 295.562 450.133 294.229 450.8C293.029 451.6 291.029 452 288.229 452ZM297.629 384.6H332.229C337.562 384.6 342.229 383.6 346.229 381.6C350.229 379.467 353.362 376.4 355.629 372.4C357.896 368.267 359.029 363.267 359.029 357.4C359.029 351.8 357.962 347 355.829 343C353.696 339 350.562 335.933 346.429 333.8C342.429 331.667 337.629 330.6 332.029 330.6H297.629V384.6Z" fill="white"/>
<defs>
<clipPath id="clip0_509_14">
<rect width="135" height="142" fill="white" transform="translate(251 62)"/>
</clipPath>
</defs>
</svg>
