<svg width="173" height="173" viewBox="0 0 173 173" fill="none" xmlns="http://www.w3.org/2000/svg">
<g clip-path="url(#clip0_9_90)" filter="url(#filter0_d_9_90)">
<path d="M15.6815 82.5C15.6815 110.406 31.8979 134.521 55.4143 145.949L21.7852 53.8093C17.7539 62.8367 15.674 72.6134 15.6815 82.5ZM133.773 78.9422C133.773 70.2301 130.643 64.196 127.959 59.4999C124.386 53.6927 121.036 48.7749 121.036 42.9677C121.036 36.4869 125.951 30.4541 132.875 30.4541C133.187 30.4541 133.483 30.4928 133.788 30.5108C121.245 19.0195 104.535 12.0038 86.181 12.0038C61.5515 12.0038 39.883 24.6404 27.2772 43.7804C28.9311 43.8301 30.4896 43.8642 31.8141 43.8642C39.1875 43.8642 50.6022 42.9703 50.6022 42.9703C54.403 42.746 54.8509 48.3276 51.0546 48.7775C51.0546 48.7775 47.2352 49.2267 42.9851 49.4491L68.6594 125.812L84.0875 79.5416L73.1034 49.4471C69.3071 49.2248 65.7106 48.7755 65.7106 48.7755C61.9118 48.5525 62.3571 42.744 66.156 42.9683C66.156 42.9683 77.7988 43.8629 84.7256 43.8629C92.099 43.8629 103.514 42.9683 103.514 42.9683C107.317 42.744 107.764 48.3257 103.967 48.7755C103.967 48.7755 100.14 49.2248 95.8973 49.4471L121.375 125.232L128.407 101.733C131.454 91.9823 133.774 84.9789 133.774 78.9428L133.773 78.9422ZM87.4178 88.6669L66.2656 150.131C72.7326 152.036 79.4393 153.003 86.181 153.003C94.3904 153.003 102.263 151.584 109.592 149.007C109.397 148.699 109.229 148.374 109.09 148.036L87.4178 88.6669ZM148.041 48.6769C148.344 50.9225 148.516 53.333 148.516 55.926C148.516 63.0803 147.18 71.1221 143.156 81.1774L121.621 143.439C142.58 131.217 156.677 108.51 156.677 82.5019C156.678 70.2449 153.548 58.7187 148.041 48.6769ZM86.181 0.322266C40.8672 0.322266 4 37.1869 4 82.5C4 127.819 40.8672 164.682 86.181 164.682C131.493 164.682 168.365 127.819 168.365 82.5C168.364 37.1869 131.493 0.322266 86.181 0.322266ZM86.181 160.916C42.9458 160.916 7.76793 125.738 7.76793 82.5C7.76793 39.2648 42.9439 4.0902 86.181 4.0902C129.415 4.0902 164.589 39.2648 164.589 82.5C164.589 125.738 129.415 160.916 86.181 160.916Z" fill="#BABABA"/>
</g>
<defs>
<filter id="filter0_d_9_90" x="0" y="0" width="173" height="173" filterUnits="userSpaceOnUse" color-interpolation-filters="sRGB">
<feFlood flood-opacity="0" result="BackgroundImageFix"/>
<feColorMatrix in="SourceAlpha" type="matrix" values="0 0 0 0 0 0 0 0 0 0 0 0 0 0 0 0 0 0 127 0" result="hardAlpha"/>
<feOffset dy="4"/>
<feGaussianBlur stdDeviation="2"/>
<feComposite in2="hardAlpha" operator="out"/>
<feColorMatrix type="matrix" values="0 0 0 0 0 0 0 0 0 0 0 0 0 0 0 0 0 0 0.25 0"/>
<feBlend mode="normal" in2="BackgroundImageFix" result="effect1_dropShadow_9_90"/>
<feBlend mode="normal" in="SourceGraphic" in2="effect1_dropShadow_9_90" result="shape"/>
</filter>
<clipPath id="clip0_9_90">
<rect width="165" height="165" fill="white" transform="translate(4)"/>
</clipPath>
</defs>
</svg>
